<mxfile host="app.diagrams.net" modified="2024-06-14T09:52:04.392Z" agent="Mozilla/5.0 (Macintosh; Intel Mac OS X 10_15_7) AppleWebKit/537.36 (KHTML, like Gecko) Chrome/125.0.0.0 Safari/537.36" etag="FWTpCbgBH9A5ob8PezbW" version="24.5.4" type="github">
  <diagram name="Page-1" id="mNklmUspQ3z-GoSxudEG">
    <mxGraphModel dx="1194" dy="536" grid="1" gridSize="10" guides="1" tooltips="1" connect="1" arrows="1" fold="1" page="1" pageScale="1" pageWidth="850" pageHeight="1100" math="0" shadow="0">
      <root>
        <mxCell id="0" />
        <mxCell id="1" parent="0" />
        <mxCell id="MFNgsPjeE0SJO3vGJ2ry-1" value="User" style="shape=umlLifeline;perimeter=lifelinePerimeter;whiteSpace=wrap;container=1;dropTarget=0;collapsible=0;recursiveResize=0;outlineConnect=0;portConstraint=eastwest;newEdgeStyle={&quot;edgeStyle&quot;:&quot;elbowEdgeStyle&quot;,&quot;elbow&quot;:&quot;vertical&quot;,&quot;curved&quot;:0,&quot;rounded&quot;:0};size=65;" vertex="1" parent="1">
          <mxGeometry x="20" y="20" width="150" height="1176" as="geometry" />
        </mxCell>
        <mxCell id="MFNgsPjeE0SJO3vGJ2ry-2" value="App" style="shape=umlLifeline;perimeter=lifelinePerimeter;whiteSpace=wrap;container=1;dropTarget=0;collapsible=0;recursiveResize=0;outlineConnect=0;portConstraint=eastwest;newEdgeStyle={&quot;edgeStyle&quot;:&quot;elbowEdgeStyle&quot;,&quot;elbow&quot;:&quot;vertical&quot;,&quot;curved&quot;:0,&quot;rounded&quot;:0};size=65;" vertex="1" parent="1">
          <mxGeometry x="405" y="20" width="150" height="1176" as="geometry" />
        </mxCell>
        <mxCell id="MFNgsPjeE0SJO3vGJ2ry-3" value="BackendAPI" style="shape=umlLifeline;perimeter=lifelinePerimeter;whiteSpace=wrap;container=1;dropTarget=0;collapsible=0;recursiveResize=0;outlineConnect=0;portConstraint=eastwest;newEdgeStyle={&quot;edgeStyle&quot;:&quot;elbowEdgeStyle&quot;,&quot;elbow&quot;:&quot;vertical&quot;,&quot;curved&quot;:0,&quot;rounded&quot;:0};size=65;" vertex="1" parent="1">
          <mxGeometry x="812" y="20" width="150" height="1176" as="geometry" />
        </mxCell>
        <mxCell id="MFNgsPjeE0SJO3vGJ2ry-4" value="par" style="shape=umlFrame;dashed=1;pointerEvents=0;dropTarget=0;strokeColor=#B3B3B3;height=20;width=30" vertex="1" parent="1">
          <mxGeometry x="84" y="572" width="814" height="378" as="geometry" />
        </mxCell>
        <mxCell id="MFNgsPjeE0SJO3vGJ2ry-5" value="[Update User Info]" style="text;strokeColor=none;fillColor=none;align=center;verticalAlign=middle;whiteSpace=wrap;" vertex="1" parent="MFNgsPjeE0SJO3vGJ2ry-4">
          <mxGeometry x="30" width="784" height="20" as="geometry" />
        </mxCell>
        <mxCell id="MFNgsPjeE0SJO3vGJ2ry-6" value="[Update Points]" style="shape=line;dashed=1;whiteSpace=wrap;verticalAlign=top;labelPosition=center;verticalLabelPosition=middle;align=center;strokeColor=#B3B3B3;" vertex="1" parent="MFNgsPjeE0SJO3vGJ2ry-4">
          <mxGeometry y="194" width="814" height="4" as="geometry" />
        </mxCell>
        <mxCell id="MFNgsPjeE0SJO3vGJ2ry-7" value="alt" style="shape=umlFrame;dashed=1;pointerEvents=0;dropTarget=0;strokeColor=#B3B3B3;height=20;width=30" vertex="1" parent="1">
          <mxGeometry x="74" y="431" width="834" height="670" as="geometry" />
        </mxCell>
        <mxCell id="MFNgsPjeE0SJO3vGJ2ry-8" value="[Transfer successful]" style="text;strokeColor=none;fillColor=none;align=center;verticalAlign=middle;whiteSpace=wrap;" vertex="1" parent="MFNgsPjeE0SJO3vGJ2ry-7">
          <mxGeometry x="30" width="804" height="20" as="geometry" />
        </mxCell>
        <mxCell id="MFNgsPjeE0SJO3vGJ2ry-9" value="[Transfer failed]" style="shape=line;dashed=1;whiteSpace=wrap;verticalAlign=top;labelPosition=center;verticalLabelPosition=middle;align=center;strokeColor=#B3B3B3;" vertex="1" parent="MFNgsPjeE0SJO3vGJ2ry-7">
          <mxGeometry y="534" width="834" height="4" as="geometry" />
        </mxCell>
        <mxCell id="MFNgsPjeE0SJO3vGJ2ry-10" value="Open app (on home page)" style="verticalAlign=bottom;endArrow=block;edgeStyle=elbowEdgeStyle;elbow=vertical;curved=0;rounded=0;" edge="1" parent="1" source="MFNgsPjeE0SJO3vGJ2ry-1" target="MFNgsPjeE0SJO3vGJ2ry-2">
          <mxGeometry relative="1" as="geometry">
            <Array as="points">
              <mxPoint x="296" y="123" />
            </Array>
          </mxGeometry>
        </mxCell>
        <mxCell id="MFNgsPjeE0SJO3vGJ2ry-11" value="Tap &quot;Transfer&quot; on tab bar" style="verticalAlign=bottom;endArrow=block;edgeStyle=elbowEdgeStyle;elbow=vertical;curved=0;rounded=0;" edge="1" parent="1" source="MFNgsPjeE0SJO3vGJ2ry-1" target="MFNgsPjeE0SJO3vGJ2ry-2">
          <mxGeometry relative="1" as="geometry">
            <Array as="points">
              <mxPoint x="296" y="171" />
            </Array>
          </mxGeometry>
        </mxCell>
        <mxCell id="MFNgsPjeE0SJO3vGJ2ry-12" value="Display Transfer Point page" style="verticalAlign=bottom;endArrow=block;edgeStyle=elbowEdgeStyle;elbow=vertical;curved=0;rounded=0;" edge="1" parent="1" source="MFNgsPjeE0SJO3vGJ2ry-2" target="MFNgsPjeE0SJO3vGJ2ry-1">
          <mxGeometry relative="1" as="geometry">
            <Array as="points">
              <mxPoint x="299" y="219" />
            </Array>
          </mxGeometry>
        </mxCell>
        <mxCell id="MFNgsPjeE0SJO3vGJ2ry-13" value="Fill cod_account (recipient)" style="verticalAlign=bottom;endArrow=block;edgeStyle=elbowEdgeStyle;elbow=vertical;curved=0;rounded=0;" edge="1" parent="1" source="MFNgsPjeE0SJO3vGJ2ry-1" target="MFNgsPjeE0SJO3vGJ2ry-2">
          <mxGeometry relative="1" as="geometry">
            <Array as="points">
              <mxPoint x="296" y="267" />
            </Array>
          </mxGeometry>
        </mxCell>
        <mxCell id="MFNgsPjeE0SJO3vGJ2ry-14" value="Fill point amount" style="verticalAlign=bottom;endArrow=block;edgeStyle=elbowEdgeStyle;elbow=vertical;curved=0;rounded=0;" edge="1" parent="1" source="MFNgsPjeE0SJO3vGJ2ry-1" target="MFNgsPjeE0SJO3vGJ2ry-2">
          <mxGeometry relative="1" as="geometry">
            <Array as="points">
              <mxPoint x="296" y="315" />
            </Array>
          </mxGeometry>
        </mxCell>
        <mxCell id="MFNgsPjeE0SJO3vGJ2ry-15" value="Submit transfer" style="verticalAlign=bottom;endArrow=block;edgeStyle=elbowEdgeStyle;elbow=vertical;curved=0;rounded=0;" edge="1" parent="1" source="MFNgsPjeE0SJO3vGJ2ry-1" target="MFNgsPjeE0SJO3vGJ2ry-2">
          <mxGeometry relative="1" as="geometry">
            <Array as="points">
              <mxPoint x="296" y="363" />
            </Array>
          </mxGeometry>
        </mxCell>
        <mxCell id="MFNgsPjeE0SJO3vGJ2ry-16" value="POST /accounts/transfer-points" style="verticalAlign=bottom;endArrow=block;edgeStyle=elbowEdgeStyle;elbow=vertical;curved=0;rounded=0;" edge="1" parent="1" source="MFNgsPjeE0SJO3vGJ2ry-2" target="MFNgsPjeE0SJO3vGJ2ry-3">
          <mxGeometry relative="1" as="geometry">
            <Array as="points">
              <mxPoint x="692" y="411" />
            </Array>
          </mxGeometry>
        </mxCell>
        <mxCell id="MFNgsPjeE0SJO3vGJ2ry-17" value="Transfer success response" style="verticalAlign=bottom;endArrow=block;edgeStyle=elbowEdgeStyle;elbow=vertical;curved=0;rounded=0;dashed=1;dashPattern=2 3;" edge="1" parent="1" source="MFNgsPjeE0SJO3vGJ2ry-3" target="MFNgsPjeE0SJO3vGJ2ry-2">
          <mxGeometry relative="1" as="geometry">
            <Array as="points">
              <mxPoint x="695" y="504" />
            </Array>
          </mxGeometry>
        </mxCell>
        <mxCell id="MFNgsPjeE0SJO3vGJ2ry-18" value="Show popup: Transfer success" style="verticalAlign=bottom;endArrow=block;edgeStyle=elbowEdgeStyle;elbow=vertical;curved=0;rounded=0;" edge="1" parent="1" source="MFNgsPjeE0SJO3vGJ2ry-2" target="MFNgsPjeE0SJO3vGJ2ry-1">
          <mxGeometry relative="1" as="geometry">
            <Array as="points">
              <mxPoint x="299" y="552" />
            </Array>
          </mxGeometry>
        </mxCell>
        <mxCell id="MFNgsPjeE0SJO3vGJ2ry-19" value="POST /accounts/info" style="verticalAlign=bottom;endArrow=block;edgeStyle=elbowEdgeStyle;elbow=vertical;curved=0;rounded=0;" edge="1" parent="1" source="MFNgsPjeE0SJO3vGJ2ry-2" target="MFNgsPjeE0SJO3vGJ2ry-3">
          <mxGeometry relative="1" as="geometry">
            <Array as="points">
              <mxPoint x="692" y="645" />
            </Array>
          </mxGeometry>
        </mxCell>
        <mxCell id="MFNgsPjeE0SJO3vGJ2ry-20" value="Return updated user info (transfer quota, max)" style="verticalAlign=bottom;endArrow=block;edgeStyle=elbowEdgeStyle;elbow=vertical;curved=0;rounded=0;dashed=1;dashPattern=2 3;" edge="1" parent="1" source="MFNgsPjeE0SJO3vGJ2ry-3" target="MFNgsPjeE0SJO3vGJ2ry-2">
          <mxGeometry relative="1" as="geometry">
            <Array as="points">
              <mxPoint x="695" y="693" />
            </Array>
          </mxGeometry>
        </mxCell>
        <mxCell id="MFNgsPjeE0SJO3vGJ2ry-21" value="Update display with transfer quota and max" style="verticalAlign=bottom;endArrow=block;edgeStyle=elbowEdgeStyle;elbow=vertical;curved=0;rounded=0;" edge="1" parent="1" source="MFNgsPjeE0SJO3vGJ2ry-2" target="MFNgsPjeE0SJO3vGJ2ry-1">
          <mxGeometry relative="1" as="geometry">
            <Array as="points">
              <mxPoint x="299" y="741" />
            </Array>
          </mxGeometry>
        </mxCell>
        <mxCell id="MFNgsPjeE0SJO3vGJ2ry-22" value="GET /accounts/points" style="verticalAlign=bottom;endArrow=block;edgeStyle=elbowEdgeStyle;elbow=vertical;curved=0;rounded=0;" edge="1" parent="1" source="MFNgsPjeE0SJO3vGJ2ry-2" target="MFNgsPjeE0SJO3vGJ2ry-3">
          <mxGeometry relative="1" as="geometry">
            <Array as="points">
              <mxPoint x="692" y="834" />
            </Array>
          </mxGeometry>
        </mxCell>
        <mxCell id="MFNgsPjeE0SJO3vGJ2ry-23" value="Return updated points" style="verticalAlign=bottom;endArrow=block;edgeStyle=elbowEdgeStyle;elbow=vertical;curved=0;rounded=0;dashed=1;dashPattern=2 3;" edge="1" parent="1" source="MFNgsPjeE0SJO3vGJ2ry-3" target="MFNgsPjeE0SJO3vGJ2ry-2">
          <mxGeometry relative="1" as="geometry">
            <Array as="points">
              <mxPoint x="695" y="882" />
            </Array>
          </mxGeometry>
        </mxCell>
        <mxCell id="MFNgsPjeE0SJO3vGJ2ry-24" value="Update display with points left" style="verticalAlign=bottom;endArrow=block;edgeStyle=elbowEdgeStyle;elbow=vertical;curved=0;rounded=0;" edge="1" parent="1" source="MFNgsPjeE0SJO3vGJ2ry-2" target="MFNgsPjeE0SJO3vGJ2ry-1">
          <mxGeometry relative="1" as="geometry">
            <Array as="points">
              <mxPoint x="299" y="930" />
            </Array>
          </mxGeometry>
        </mxCell>
        <mxCell id="MFNgsPjeE0SJO3vGJ2ry-25" value="Transfer error response" style="verticalAlign=bottom;endArrow=block;edgeStyle=elbowEdgeStyle;elbow=vertical;curved=0;rounded=0;dashed=1;dashPattern=2 3;" edge="1" parent="1" source="MFNgsPjeE0SJO3vGJ2ry-3" target="MFNgsPjeE0SJO3vGJ2ry-2">
          <mxGeometry relative="1" as="geometry">
            <Array as="points">
              <mxPoint x="695" y="1033" />
            </Array>
          </mxGeometry>
        </mxCell>
        <mxCell id="MFNgsPjeE0SJO3vGJ2ry-26" value="Show popup: Error message" style="verticalAlign=bottom;endArrow=block;edgeStyle=elbowEdgeStyle;elbow=vertical;curved=0;rounded=0;" edge="1" parent="1" source="MFNgsPjeE0SJO3vGJ2ry-2" target="MFNgsPjeE0SJO3vGJ2ry-1">
          <mxGeometry relative="1" as="geometry">
            <Array as="points">
              <mxPoint x="299" y="1081" />
            </Array>
          </mxGeometry>
        </mxCell>
      </root>
    </mxGraphModel>
  </diagram>
</mxfile>
